<mxfile modified="2022-07-06T21:18:26.728Z" host="drawio-plugin" agent="5.0 (Windows NT 6.2; Win64; x64) AppleWebKit/537.36 (KHTML, like Gecko) Chrome/97.0.4692.45 Safari/537.36" etag="HKC8PqFJDfaKZF5YDryz" version="15.5.4" type="embed"><diagram id="f106602c-feb2-e66a-4537-3a34d633f6aa" name="Page-1"><mxGraphModel dx="2174" dy="977" grid="1" gridSize="10" guides="1" tooltips="1" connect="1" arrows="1" fold="1" page="1" pageScale="1" pageWidth="1169" pageHeight="827" background="none" math="0" shadow="0"><root><mxCell id="0"/><mxCell id="1" parent="0"/><mxCell id="14" value="" style="fillColor=#F6F6F6;strokeColor=none;shadow=0;gradientColor=none;fontSize=14;align=left;spacing=10;fontColor=#717171;9E9E9E;verticalAlign=top;spacingTop=-4;fontStyle=0;spacingLeft=40;html=1;" parent="1" vertex="1"><mxGeometry x="360" y="110" width="450" height="580" as="geometry"/></mxCell><mxCell id="23" value="" style="strokeColor=#dddddd;fillColor=#ffffff;shadow=1;strokeWidth=1;rounded=1;absoluteArcSize=1;arcSize=2;fontSize=14;fontColor=#808080;align=left;html=1;" parent="14" vertex="1"><mxGeometry x="270" y="150" width="140" height="60" as="geometry"/></mxCell><mxCell id="6DOrGvRwuNN2LFZfN5_a-27" value="&lt;font color=&quot;#000000&quot;&gt;Microservice &lt;br&gt;Client&lt;/font&gt;" style="dashed=0;connectable=0;html=1;fillColor=#5184F3;strokeColor=none;shape=mxgraph.gcp2.hexIcon;prIcon=cloud_endpoints;part=1;labelPosition=right;verticalLabelPosition=middle;align=left;verticalAlign=middle;spacingLeft=5;fontColor=#999999;fontSize=12;" parent="14" vertex="1"><mxGeometry x="270" y="160.5" width="44" height="39" as="geometry"/></mxCell><mxCell id="6DOrGvRwuNN2LFZfN5_a-32" value="" style="strokeColor=#dddddd;fillColor=#ffffff;shadow=1;strokeWidth=1;rounded=1;absoluteArcSize=1;arcSize=2;fontSize=14;fontColor=#808080;align=left;html=1;" parent="14" vertex="1"><mxGeometry x="270" y="280" width="140" height="60" as="geometry"/></mxCell><mxCell id="6DOrGvRwuNN2LFZfN5_a-33" value="&lt;font color=&quot;#000000&quot;&gt;Microservice &lt;br&gt;Product&lt;/font&gt;" style="dashed=0;connectable=0;html=1;fillColor=#5184F3;strokeColor=none;shape=mxgraph.gcp2.hexIcon;prIcon=cloud_endpoints;part=1;labelPosition=right;verticalLabelPosition=middle;align=left;verticalAlign=middle;spacingLeft=5;fontColor=#999999;fontSize=12;" parent="14" vertex="1"><mxGeometry x="270" y="290.5" width="44" height="39" as="geometry"/></mxCell><mxCell id="6DOrGvRwuNN2LFZfN5_a-35" value="" style="strokeColor=#dddddd;fillColor=#ffffff;shadow=1;strokeWidth=1;rounded=1;absoluteArcSize=1;arcSize=2;fontSize=14;fontColor=#808080;align=left;html=1;" parent="14" vertex="1"><mxGeometry x="40" y="150" width="140" height="60" as="geometry"/></mxCell><mxCell id="6DOrGvRwuNN2LFZfN5_a-36" value="&lt;font color=&quot;#000000&quot;&gt;Microservice &lt;br&gt;bankCredit&lt;/font&gt;" style="dashed=0;connectable=0;html=1;fillColor=#5184F3;strokeColor=none;shape=mxgraph.gcp2.hexIcon;prIcon=cloud_endpoints;part=1;labelPosition=right;verticalLabelPosition=middle;align=left;verticalAlign=middle;spacingLeft=5;fontColor=#999999;fontSize=12;" parent="6DOrGvRwuNN2LFZfN5_a-35" vertex="1"><mxGeometry y="0.5" width="44" height="39" relative="1" as="geometry"><mxPoint x="5" y="-19.5" as="offset"/></mxGeometry></mxCell><mxCell id="6DOrGvRwuNN2LFZfN5_a-37" value="" style="endArrow=classic;html=1;rounded=0;strokeColor=#007FFF;entryX=0;entryY=0.5;entryDx=0;entryDy=0;exitX=1;exitY=0.5;exitDx=0;exitDy=0;" parent="14" source="6DOrGvRwuNN2LFZfN5_a-35" target="23" edge="1"><mxGeometry width="50" height="50" relative="1" as="geometry"><mxPoint x="140" y="300" as="sourcePoint"/><mxPoint x="190" y="250" as="targetPoint"/></mxGeometry></mxCell><mxCell id="6DOrGvRwuNN2LFZfN5_a-39" value="" style="endArrow=classic;html=1;rounded=0;strokeColor=#007FFF;entryX=0;entryY=0.5;entryDx=0;entryDy=0;exitX=1;exitY=0.5;exitDx=0;exitDy=0;" parent="14" source="6DOrGvRwuNN2LFZfN5_a-35" target="6DOrGvRwuNN2LFZfN5_a-32" edge="1"><mxGeometry width="50" height="50" relative="1" as="geometry"><mxPoint x="140" y="300" as="sourcePoint"/><mxPoint x="190" y="250" as="targetPoint"/></mxGeometry></mxCell><mxCell id="2" value="Architecture: General &amp;gt; App Bank Endpoints" style="fillColor=#4DA1F5;strokeColor=none;shadow=1;gradientColor=none;fontSize=14;align=left;spacingLeft=50;fontColor=#ffffff;html=1;" parent="1" vertex="1"><mxGeometry x="85" y="40" width="765" height="40" as="geometry"/></mxCell><mxCell id="5" value="" style="edgeStyle=elbowEdgeStyle;fontSize=12;html=1;endArrow=oval;endFill=1;rounded=0;strokeWidth=2;endSize=6;startSize=4;dashed=0;strokeColor=#4284F3;elbow=vertical;" parent="1" edge="1"><mxGeometry width="100" relative="1" as="geometry"><mxPoint x="270" y="239.95348837209303" as="sourcePoint"/><mxPoint x="280" y="240" as="targetPoint"/></mxGeometry></mxCell><mxCell id="8" value="" style="edgeStyle=elbowEdgeStyle;fontSize=12;html=1;endArrow=oval;endFill=1;rounded=0;strokeWidth=2;endSize=6;startSize=4;dashed=0;strokeColor=#4284F3;elbow=vertical;" parent="1" edge="1"><mxGeometry width="100" relative="1" as="geometry"><mxPoint x="270" y="399.93959731543623" as="sourcePoint"/><mxPoint x="280" y="400" as="targetPoint"/></mxGeometry></mxCell><mxCell id="11" value="" style="edgeStyle=elbowEdgeStyle;fontSize=12;html=1;endArrow=oval;endFill=1;rounded=0;strokeWidth=2;endSize=6;startSize=4;dashed=0;strokeColor=#4284F3;elbow=vertical;" parent="1" edge="1"><mxGeometry width="100" relative="1" as="geometry"><mxPoint x="270" y="549.989247311828" as="sourcePoint"/><mxPoint x="280" y="550" as="targetPoint"/><Array as="points"/></mxGeometry></mxCell><mxCell id="12" value="" style="strokeColor=#dddddd;fillColor=#ffffff;shadow=1;strokeWidth=1;rounded=1;absoluteArcSize=1;arcSize=2;fontSize=14;fontColor=#808080;align=left;html=1;" parent="1" vertex="1"><mxGeometry x="400" y="370" width="140" height="60" as="geometry"/></mxCell><mxCell id="13" value="&lt;font color=&quot;#000000&quot;&gt;Microservice &lt;br&gt;bankAcoount&lt;/font&gt;" style="dashed=0;connectable=0;html=1;fillColor=#5184F3;strokeColor=none;shape=mxgraph.gcp2.hexIcon;prIcon=cloud_endpoints;part=1;labelPosition=right;verticalLabelPosition=middle;align=left;verticalAlign=middle;spacingLeft=5;fontColor=#999999;fontSize=12;" parent="12" vertex="1"><mxGeometry y="0.5" width="44" height="39" relative="1" as="geometry"><mxPoint x="5" y="-19.5" as="offset"/></mxGeometry></mxCell><mxCell id="16" value="" style="rounded=1;absoluteArcSize=1;arcSize=2;html=1;strokeColor=none;gradientColor=none;shadow=0;dashed=0;strokeColor=none;fontSize=12;fontColor=#9E9E9E;align=left;verticalAlign=top;spacing=10;spacingTop=-4;fillColor=#E0E0E0;" parent="1" vertex="1"><mxGeometry x="180" y="740" width="670" height="30" as="geometry"/></mxCell><mxCell id="18" value="" style="edgeStyle=orthogonalEdgeStyle;fontSize=12;html=1;endArrow=blockThin;endFill=1;rounded=0;strokeWidth=2;endSize=4;startSize=4;dashed=0;strokeColor=#4284F3;startArrow=blockThin;startFill=1;" parent="1" edge="1"><mxGeometry width="100" relative="1" as="geometry"><mxPoint x="290" y="400" as="sourcePoint"/><mxPoint x="377" y="400" as="targetPoint"/><Array as="points"><mxPoint x="330" y="400"/><mxPoint x="330" y="400"/></Array></mxGeometry></mxCell><mxCell id="19" value="" style="fontSize=12;html=1;endArrow=blockThin;endFill=1;rounded=0;strokeWidth=2;endSize=4;startSize=4;dashed=0;strokeColor=#4284F3;startArrow=blockThin;startFill=1;edgeStyle=orthogonalEdgeStyle;" parent="1" edge="1"><mxGeometry width="100" relative="1" as="geometry"><mxPoint x="290" y="240" as="sourcePoint"/><mxPoint x="290" y="550" as="targetPoint"/><Array as="points"><mxPoint x="330" y="240"/><mxPoint x="330" y="550"/></Array></mxGeometry></mxCell><mxCell id="20" value="" style="edgeStyle=orthogonalEdgeStyle;fontSize=12;html=1;endArrow=oval;endFill=1;rounded=0;strokeWidth=2;endSize=6;startSize=4;dashed=0;strokeColor=#4284F3;exitX=0;exitY=0.149;exitPerimeter=0;" parent="1" edge="1"><mxGeometry width="100" relative="1" as="geometry"><mxPoint x="400.09302325581393" y="382.8604651162791" as="sourcePoint"/><mxPoint x="390" y="383" as="targetPoint"/></mxGeometry></mxCell><mxCell id="21" value="" style="edgeStyle=orthogonalEdgeStyle;fontSize=12;html=1;endArrow=oval;endFill=1;rounded=0;strokeWidth=2;endSize=6;startSize=4;dashed=0;strokeColor=#4284F3;" parent="1" edge="1"><mxGeometry width="100" relative="1" as="geometry"><mxPoint x="400" y="400" as="sourcePoint"/><mxPoint x="389.9902912621359" y="399.9126213592233" as="targetPoint"/></mxGeometry></mxCell><mxCell id="22" value="" style="edgeStyle=orthogonalEdgeStyle;fontSize=12;html=1;endArrow=oval;endFill=1;rounded=0;strokeWidth=2;endSize=6;startSize=4;dashed=0;strokeColor=#4284F3;" parent="1" edge="1"><mxGeometry width="100" relative="1" as="geometry"><mxPoint x="400" y="416.04651162790697" as="sourcePoint"/><mxPoint x="389.9902912621359" y="415.91262135922335" as="targetPoint"/></mxGeometry></mxCell><mxCell id="3" value="iOS / Android" style="strokeColor=#dddddd;fillColor=#ffffff;shadow=1;strokeWidth=1;rounded=1;absoluteArcSize=1;arcSize=2;labelPosition=center;verticalLabelPosition=middle;align=center;verticalAlign=bottom;spacingLeft=0;fontColor=#999999;fontSize=12;whiteSpace=wrap;spacingBottom=2;html=1;" parent="1" vertex="1"><mxGeometry x="180" y="198" width="90" height="85" as="geometry"/></mxCell><mxCell id="4" value="" style="dashed=0;html=1;fillColor=#757575;strokeColor=none;shape=mxgraph.gcp2.phone;part=1;" parent="3" vertex="1"><mxGeometry x="0.5" width="32" height="50" relative="1" as="geometry"><mxPoint x="-16" y="10" as="offset"/></mxGeometry></mxCell><mxCell id="6DOrGvRwuNN2LFZfN5_a-25" value="" style="image;html=1;image=img/lib/clip_art/computers/Laptop_128x128.png;imageBackground=default;imageBorder=none;" parent="1" vertex="1"><mxGeometry x="190" y="350" width="80" height="80" as="geometry"/></mxCell><mxCell id="6DOrGvRwuNN2LFZfN5_a-26" value="" style="fontColor=#0066CC;verticalAlign=top;verticalLabelPosition=bottom;labelPosition=center;align=center;html=1;outlineConnect=0;fillColor=#CCCCCC;strokeColor=#6881B3;gradientColor=none;gradientDirection=north;strokeWidth=2;shape=mxgraph.networks.pc;" parent="1" vertex="1"><mxGeometry x="170" y="510" width="100" height="70" as="geometry"/></mxCell><mxCell id="6DOrGvRwuNN2LFZfN5_a-31" value="" style="endArrow=classic;html=1;rounded=0;strokeColor=#007FFF;entryX=0.5;entryY=1;entryDx=0;entryDy=0;" parent="1" target="23" edge="1"><mxGeometry width="50" height="50" relative="1" as="geometry"><mxPoint x="540" y="400" as="sourcePoint"/><mxPoint x="550" y="360" as="targetPoint"/></mxGeometry></mxCell><mxCell id="6DOrGvRwuNN2LFZfN5_a-34" value="" style="endArrow=classic;html=1;rounded=0;strokeColor=#007FFF;entryX=0;entryY=0.5;entryDx=0;entryDy=0;exitX=1.003;exitY=0.627;exitDx=0;exitDy=0;exitPerimeter=0;" parent="1" source="12" target="6DOrGvRwuNN2LFZfN5_a-32" edge="1"><mxGeometry width="50" height="50" relative="1" as="geometry"><mxPoint x="500" y="410" as="sourcePoint"/><mxPoint x="550" y="360" as="targetPoint"/></mxGeometry></mxCell><mxCell id="6DOrGvRwuNN2LFZfN5_a-40" value="" style="endArrow=classic;startArrow=classic;html=1;rounded=0;strokeColor=#3399FF;entryX=0;entryY=0.5;entryDx=0;entryDy=0;strokeWidth=2;" parent="1" target="6DOrGvRwuNN2LFZfN5_a-35" edge="1"><mxGeometry width="50" height="50" relative="1" as="geometry"><mxPoint x="290" y="290" as="sourcePoint"/><mxPoint x="550" y="360" as="targetPoint"/></mxGeometry></mxCell></root></mxGraphModel></diagram></mxfile>